<svg width="22" height="20" viewBox="0 0 22 20" fill="none" xmlns="http://www.w3.org/2000/svg">
<path d="M20.8755 7.37999C20.2955 5.33999 17.7055 4.26999 14.9655 4.86999C14.6255 2.32999 12.9855 0.399994 10.9955 0.399994C9.00549 0.399994 7.36549 2.32999 7.01549 4.86999C4.28549 4.26999 1.69549 5.33999 1.11549 7.37999C0.58549 9.24999 1.92549 11.32 4.19549 12.37C2.67549 14.42 2.51549 16.94 3.93549 18.33C5.53549 19.89 8.53549 19.41 10.6355 17.25C10.7655 17.12 10.8855 16.98 11.0055 16.84C11.1255 16.98 11.2455 17.11 11.3755 17.25C13.4755 19.4 16.4755 19.88 18.0755 18.33C19.4955 16.95 19.3255 14.43 17.8155 12.37C20.0755 11.33 21.4155 9.25999 20.8755 7.37999Z" fill="#FF9C92"/>
<path d="M20.8755 7.37999C20.2955 5.33999 17.7055 4.26999 14.9655 4.86999C14.6255 2.32999 12.9855 0.399994 10.9955 0.399994C9.00549 0.399994 7.36549 2.32999 7.01549 4.86999C5.64549 4.56999 4.31549 4.68999 3.25549 5.12999" stroke="#3A1C14" stroke-width="0.8" stroke-miterlimit="10" stroke-linecap="round"/>
<path d="M8.24548 18.86C9.08548 18.53 9.91548 17.99 10.6355 17.25C10.7655 17.12 10.8855 16.98 11.0055 16.84C11.1255 16.98 11.2455 17.11 11.3755 17.25C13.4755 19.4 16.4755 19.88 18.0755 18.33C19.4955 16.95 19.3255 14.43 17.8155 12.37C19.3055 11.68 20.3955 10.56 20.8155 9.32999" stroke="#3A1C14" stroke-width="0.8" stroke-miterlimit="10" stroke-linecap="round"/>
<path d="M1.89549 6.04999C1.52549 6.41999 1.25549 6.86999 1.11549 7.37999C0.58549 9.24999 1.92549 11.32 4.19549 12.37C2.67549 14.42 2.51549 16.94 3.93549 18.33C4.50549 18.89 5.25549 19.19 6.08549 19.24" stroke="#3A1C14" stroke-width="0.8" stroke-miterlimit="10" stroke-linecap="round"/>
<path d="M10.9955 7V12.7" stroke="#3A1C14" stroke-width="0.8" stroke-miterlimit="10" stroke-linecap="round"/>
<path d="M13.8455 9.85001H8.14551" stroke="#3A1C14" stroke-width="0.8" stroke-miterlimit="10" stroke-linecap="round"/>
<path d="M13.0055 7.84L8.97546 11.87" stroke="#3A1C14" stroke-width="0.8" stroke-miterlimit="10" stroke-linecap="round"/>
<path d="M8.98547 7.84L13.0155 11.87" stroke="#3A1C14" stroke-width="0.8" stroke-miterlimit="10" stroke-linecap="round"/>
<path d="M11.0255 10.87C11.6054 10.87 12.0755 10.3999 12.0755 9.81999C12.0755 9.24009 11.6054 8.76999 11.0255 8.76999C10.4456 8.76999 9.97546 9.24009 9.97546 9.81999C9.97546 10.3999 10.4456 10.87 11.0255 10.87Z" fill="#D23C39" stroke="#3A1C14" stroke-miterlimit="10"/>
<path d="M10.9954 6.13999C11.2254 6.13999 11.4154 5.94999 11.4154 5.71999C11.4154 5.48999 11.2254 5.29999 10.9954 5.29999C10.7654 5.29999 10.5754 5.48999 10.5754 5.71999C10.5754 5.94999 10.7654 6.13999 10.9954 6.13999Z" fill="#D23C39"/>
<path d="M10.9954 13.56C10.7654 13.56 10.5754 13.75 10.5754 13.98C10.5754 14.21 10.7654 14.4 10.9954 14.4C11.2254 14.4 11.4154 14.21 11.4154 13.98C11.4154 13.75 11.2254 13.56 10.9954 13.56Z" fill="#D23C39"/>
<path d="M14.7054 9.84999C14.7054 10.08 14.8954 10.27 15.1254 10.27C15.3554 10.27 15.5454 10.08 15.5454 9.84999C15.5454 9.61999 15.3554 9.42999 15.1254 9.42999C14.8954 9.42999 14.7054 9.61999 14.7054 9.84999Z" fill="#D23C39"/>
<path d="M7.28543 9.84999C7.28543 9.61999 7.09543 9.42999 6.86543 9.42999C6.63543 9.42999 6.44543 9.61999 6.44543 9.84999C6.44543 10.08 6.63543 10.27 6.86543 10.27C7.09543 10.27 7.28543 10.08 7.28543 9.84999Z" fill="#D23C39"/>
<path d="M8.37553 7.22999C8.53553 7.06999 8.53553 6.79999 8.37553 6.63999C8.21553 6.47999 7.94553 6.47999 7.78553 6.63999C7.62553 6.79999 7.62553 7.06999 7.78553 7.22999C7.94553 7.38999 8.20553 7.38999 8.37553 7.22999Z" fill="#D23C39"/>
<path d="M13.6155 12.47C13.4555 12.63 13.4555 12.9 13.6155 13.06C13.7755 13.22 14.0455 13.22 14.2055 13.06C14.3655 12.9 14.3655 12.63 14.2055 12.47C14.0455 12.31 13.7855 12.31 13.6155 12.47Z" fill="#D23C39"/>
<path d="M13.6155 7.22999C13.7755 7.38999 14.0455 7.38999 14.2055 7.22999C14.3655 7.06999 14.3655 6.79999 14.2055 6.63999C14.0455 6.47999 13.7755 6.47999 13.6155 6.63999C13.4555 6.79999 13.4555 7.05999 13.6155 7.22999Z" fill="#D23C39"/>
<path d="M8.37553 12.47C8.21553 12.31 7.94553 12.31 7.78553 12.47C7.62553 12.63 7.62553 12.9 7.78553 13.06C7.94553 13.22 8.21553 13.22 8.37553 13.06C8.53553 12.9 8.53553 12.64 8.37553 12.47Z" fill="#D23C39"/>
</svg>
